<?xml version="1.0" encoding="utf-8"?>
<!-- Generator: Adobe Illustrator 26.3.1, SVG Export Plug-In . SVG Version: 6.00 Build 0)  -->
<svg version="1.1" id="Layer_1" xmlns="http://www.w3.org/2000/svg" xmlns:xlink="http://www.w3.org/1999/xlink" x="0px" y="0px"
	 viewBox="0 0 50 50" style="enable-background:new 0 0 50 50;" xml:space="preserve">
<style type="text/css">
	.st0{fill:#FFFFFF;}
</style>
<path class="st0" d="M12.56,29.09C12.14,27.8,11.9,26.43,11.9,25c0-4.33,2.11-8.16,5.35-10.54L11.56,3.93C4.61,8.37,0,16.14,0,25
	c0,3.41,0.69,6.66,1.92,9.63L12.56,29.09 M25,38.1c1.61,0,3.15-0.3,4.57-0.84l5.69,10.53C32.13,49.21,28.66,50,25,50
	c-7.93,0-14.99-3.7-19.57-9.45l9.99-6.64C17.81,36.48,21.21,38.1,25,38.1 M25,11.9c-1.61,0-3.15,0.3-4.57,0.84L14.74,2.21
	C17.87,0.79,21.34,0,25,0c8.8,0,16.53,4.55,20.99,11.43l-10.58,5.64C33.01,13.93,29.25,11.9,25,11.9 M38.1,25
	c0-1.88-0.4-3.66-1.12-5.28l10.05-6.54C48.92,16.7,50,20.72,50,25c0,8.86-4.61,16.63-11.56,21.07l-5.69-10.53
	C35.99,33.16,38.1,29.33,38.1,25 M27.04,23.92c-0.54-1.03-1.81-1.43-2.84-0.9l-8.06,4.19c-0.18-0.71-0.28-1.45-0.28-2.22
	c0-5.04,4.09-9.13,9.13-9.13s9.13,4.09,9.13,9.13s-4.09,9.13-9.13,9.13c-2.41,0-4.59-0.94-6.22-2.46l7.56-5.03
	C27.22,26.06,27.54,24.88,27.04,23.92"/>
</svg>
